<?xml version="1.0" encoding="utf-8"?>
<!-- Generator: Adobe Illustrator 21.0.2, SVG Export Plug-In . SVG Version: 6.00 Build 0)  -->
<svg version="1.1"
	 id="svg2" inkscape:export-filename="/home/slemaign/public_html/talks/geotemp/images/state.png" inkscape:export-xdpi="150" inkscape:export-ydpi="150" inkscape:version="0.91 r13725" sodipodi:docname="overview.svg" xmlns:cc="http://creativecommons.org/ns#" xmlns:dc="http://purl.org/dc/elements/1.1/" xmlns:inkscape="http://www.inkscape.org/namespaces/inkscape" xmlns:rdf="http://www.w3.org/1999/02/22-rdf-syntax-ns#" xmlns:sodipodi="http://sodipodi.sourceforge.net/DTD/sodipodi-0.dtd" xmlns:svg="http://www.w3.org/2000/svg"
	 xmlns="http://www.w3.org/2000/svg" xmlns:xlink="http://www.w3.org/1999/xlink" x="0px" y="0px" viewBox="0 0 385.5 536.6"
	 style="enable-background:new 0 0 385.5 536.6;" xml:space="preserve">
<style type="text/css">
	.st0{fill:#D6D7EF;stroke:#2E3436;stroke-width:0.1;stroke-linecap:round;}
	.st1{font-family:'ArialMT';}
	.st2{font-size:10.6841px;}
	.st3{fill:#FFFFFF;stroke:#2E3436;stroke-width:0.9473;stroke-linecap:round;}
	.st4{fill:#D6D7EF;stroke:#2E3436;stroke-width:0.1266;stroke-linecap:round;}
	.st5{fill:none;stroke:#000000;stroke-width:0.7542;stroke-linecap:round;}
	.st6{fill:none;}
	.st7{font-size:12px;}
	.st8{font-size:8px;}
	.st9{fill:none;stroke:#2E3436;stroke-width:0.9473;stroke-linecap:round;}
	.st10{fill:#2E3436;}
	.st11{fill:none;stroke:#000000;stroke-miterlimit:10;}
	.st12{stroke:#000000;stroke-miterlimit:10;}
	.st13{fill:#231F20;stroke:#2E3436;stroke-linecap:round;}
	.st14{fill:#231F20;stroke:#231F20;stroke-width:0.9473;stroke-linecap:round;}
	.st15{fill:none;stroke:#231F20;stroke-miterlimit:10;}
	.st16{fill:#231F20;}
	.st17{fill:none;stroke:#231F20;stroke-linecap:round;}
	.st18{fill:none;stroke:#231F20;stroke-width:0.9473;stroke-linecap:round;}
</style>
<defs>
	
	
		<inkscape:perspective  id="perspective71" inkscape:persp3d-origin="32 : 21.333333 : 1" inkscape:vp_x="0 : 32 : 1" inkscape:vp_y="0 : 1000 : 0" inkscape:vp_z="64 : 32 : 1" sodipodi:type="inkscape:persp3d">
		</inkscape:perspective>
</defs>
<sodipodi:namedview  bordercolor="#666666" borderopacity="1.0" fit-margin-bottom="0" fit-margin-left="0" fit-margin-right="0" fit-margin-top="0" id="base" inkscape:current-layer="g5347" inkscape:cx="259.21211" inkscape:cy="248.10847" inkscape:document-units="px" inkscape:pageopacity="0.0" inkscape:pageshadow="2" inkscape:window-height="1025" inkscape:window-maximized="1" inkscape:window-width="1920" inkscape:window-x="0" inkscape:window-y="867" inkscape:zoom="2.8" pagecolor="#ffffff" showgrid="false">
	</sodipodi:namedview>
<g id="g4380-4-5" transform="translate(653.39685,414.87085)">
	<g id="g4283-2-0" transform="translate(-224.50768,204.19651)">
	</g>
</g>
<g id="g5100" transform="translate(-45.714285,-8.5714285)">
	<path id="rect5071" class="st0" d="M188.7,45.3h119c1,0,1.8,0.6,1.8,1.4v18.9c0,0.8-0.8,1.4-1.8,1.4h-119c-1,0-1.8-0.6-1.8-1.4
		V46.8C186.8,46,187.7,45.3,188.7,45.3z"/>
	<text transform="matrix(1 0 0 1 194.2618 42.7211)" class="st1 st2">client</text>
	
		<g id="g3160" transform="matrix(0.67678168,0,0,0.67678168,317.03913,419.83957)" inkscape:export-filename="/home/slemaign/public_html/talks/geotemp/images/currentworld.png" inkscape:export-xdpi="150" inkscape:export-ydpi="150">
		<text transform="matrix(1.4776 0 0 1.4776 -170.9558 -533.8017)" class="st1 st2">Object RFID tracker</text>
	</g>
</g>
<g id="g5262" transform="translate(108.83905,-8.5714285)">
	<path id="rect5264" class="st0" d="M172,45.3h94c0.8,0,1.4,0.6,1.4,1.4v18.9c0,0.8-0.6,1.4-1.4,1.4h-94c-0.8,0-1.4-0.6-1.4-1.4
		V46.8C170.5,46,171.2,45.3,172,45.3z"/>
	<text transform="matrix(1 0 0 1 173.9523 40.8685)" class="st1 st2">client</text>
	
		<g id="g5270" transform="matrix(0.67678168,0,0,0.67678168,317.03913,419.83957)" inkscape:export-filename="/home/slemaign/public_html/talks/geotemp/images/currentworld.png" inkscape:export-xdpi="150" inkscape:export-ydpi="150">
		<text transform="matrix(1.4776 0 0 1.4776 -193.0847 -533.4723)" class="st1 st2">NAO model</text>
	</g>
</g>
<g id="g19951" transform="matrix(0.31668278,0,0,0.31668278,-24.106938,310.59252)" inkscape:export-filename="/home/slemaign/public_html/talks/geotemp/images/currentworld.png" inkscape:export-xdpi="150" inkscape:export-ydpi="150">
	<path id="rect19953" class="st3" d="M532-672.1h348.3c5.3,0,9.6,4.3,9.6,9.6v198.1c0,5.3-4.3,9.6-9.6,9.6H532
		c-5.3,0-9.6-4.3-9.6-9.6v-198.1C522.4-667.9,526.7-672.1,532-672.1z"/>
	<g id="g20139" transform="matrix(1.1107441,0,0,1.1107441,897.27507,804.59269)">
	</g>
</g>
<g id="g6158" transform="translate(-97.142856,187.41841)">
	<path id="rect6160" class="st4" d="M110.2,135.3h93.9c0.8,0,1.4,1,1.4,2.3v30.3c0,1.3-0.6,2.3-1.4,2.3h-93.9c-0.8,0-1.4-1-1.4-2.3
		v-30.3C108.7,136.3,109.4,135.3,110.2,135.3z"/>
	<text transform="matrix(1 0 0 1 112.1488 134.1886)" class="st1 st2">client</text>
	
		<g id="g6166" transform="matrix(0.67678168,0,0,0.67678168,317.03913,419.83957)" inkscape:export-filename="/home/slemaign/public_html/talks/geotemp/images/currentworld.png" inkscape:export-xdpi="150" inkscape:export-ydpi="150">
		<text transform="matrix(1.4776 0 0 1.4776 -293.2696 -398.6521)" class="st1 st2">Computation of</text>
		<text transform="matrix(1.4776 0 0 1.4776 -293.2696 -378.9183)" class="st1 st2">spatial relations</text>
	</g>
</g>
<g id="g5100_1_" transform="translate(-45.714285,-8.5714285)">
	<path id="rect5071_1_" class="st0" d="M59.3,45.3h119c1,0,1.8,0.6,1.8,1.4v18.9c0,0.8-0.8,1.4-1.8,1.4h-119c-1,0-1.8-0.6-1.8-1.4
		V46.8C57.5,46,58.3,45.3,59.3,45.3z"/>
	<text transform="matrix(1 0 0 1 64.9416 42.7213)" class="st1 st2">client</text>
	
		<g id="g3160_1_" transform="matrix(0.67678168,0,0,0.67678168,317.03913,419.83957)" inkscape:export-filename="/home/slemaign/public_html/talks/geotemp/images/currentworld.png" inkscape:export-xdpi="150" inkscape:export-ydpi="150">
		<text transform="matrix(1.4776 0 0 1.4776 -358.1553 -533.8017)" class="st1 st2">Kinect head tracker</text>
	</g>
</g>
<image style="overflow:visible;enable-background:new    ;" width="1307" height="847" xlink:href="screenshot-l2tor1.PNG"  transform="matrix(7.716838e-02 0 0 6.808344e-02 149.1669 103.3333)">
</image>
<g>
	<g>
		<line class="st5" x1="196.1" y1="58.3" x2="196.1" y2="80.1"/>
		<g>
			<polygon points="192.3,79 196.1,85.5 199.9,79 			"/>
		</g>
	</g>
</g>
<rect x="145.8" y="85.7" class="st6" width="98.7" height="17.4"/>
<text transform="matrix(1 0 0 1 145.7536 94.2586)" class="st1 st7">Word </text>
<text transform="matrix(1 0 0 1 177.7536 94.2586)" class="st1 st8">with objects</text>
<g id="g19951_1_" transform="matrix(0.31668278,0,0,0.31668278,-24.106938,310.59252)" inkscape:export-filename="/home/slemaign/public_html/talks/geotemp/images/currentworld.png" inkscape:export-xdpi="150" inkscape:export-ydpi="150">
	<path id="rect19953_1_" class="st3" d="M532-331.1h348.3c5.3,0,9.6,4.3,9.6,9.6v198.1c0,5.3-4.3,9.6-9.6,9.6H532
		c-5.3,0-9.6-4.3-9.6-9.6v-198.1C522.4-326.8,526.7-331.1,532-331.1z"/>
	<g id="g20139_1_" transform="matrix(1.1107441,0,0,1.1107441,897.27507,804.59269)">
	</g>
</g>
<image style="overflow:visible;enable-background:new    ;" width="1265" height="888" xlink:href="screenshot-l2tor2.PNG"  transform="matrix(7.917242e-02 0 0 6.725514e-02 149.5198 210.5521)">
</image>
<line class="st9" x1="72.9" y1="58.5" x2="73.1" y2="240.1"/>
<g>
	<g>
		<line class="st9" x1="73.1" y1="240.1" x2="136.1" y2="240.1"/>
		<g>
			<polygon class="st10" points="135.4,234.4 135.4,245.9 141.1,240.1 			"/>
		</g>
	</g>
</g>
<line class="st9" x1="334.7" y1="58.5" x2="334.7" y2="240.1"/>
<g>
	<g>
		<line class="st9" x1="263" y1="240.1" x2="334.7" y2="240.1"/>
		<g>
			<polygon class="st10" points="263.8,234.4 263.8,245.9 258.1,240.1 			"/>
		</g>
	</g>
</g>
<rect x="145.8" y="192.6" class="st6" width="98.7" height="17.4"/>
<text transform="matrix(1 0 0 1 145.7536 201.2113)" class="st1 st7">Word </text>
<text transform="matrix(1 0 0 1 177.7536 201.2113)" class="st1 st8">updated</text>
<g id="g6158_1_" transform="translate(-97.142856,187.41841)">
	<path id="rect6160_1_" class="st4" d="M245.3,135.3h93.9c0.8,0,1.4,1,1.4,2.3v30.3c0,1.3-0.6,2.3-1.4,2.3h-93.9
		c-0.8,0-1.4-1-1.4-2.3v-30.3C243.8,136.3,244.5,135.3,245.3,135.3z"/>
	<text transform="matrix(1 0 0 1 247.2356 134.1886)" class="st1 st2">client</text>
	
		<g id="g6166_1_" transform="matrix(0.67678168,0,0,0.67678168,317.03913,419.83957)" inkscape:export-filename="/home/slemaign/public_html/talks/geotemp/images/currentworld.png" inkscape:export-xdpi="150" inkscape:export-ydpi="150">
		<text transform="matrix(1.4776 0 0 1.4776 -93.6681 -398.6522)" class="st1 st2">Visibility</text>
		<text transform="matrix(1.4776 0 0 1.4776 -93.6681 -379.7389)" class="st1 st2">computation</text>
	</g>
</g>
<g id="g6158_2_" transform="translate(-97.142856,187.41841)">
	<path id="rect6160_2_" class="st4" d="M369.8,135.3h93.9c0.8,0,1.4,1,1.4,2.3v30.3c0,1.3-0.6,2.3-1.4,2.3h-93.9
		c-0.8,0-1.4-1-1.4-2.3v-30.3C368.3,136.3,369,135.3,369.8,135.3z"/>
	<text transform="matrix(1 0 0 1 371.7416 134.1884)" class="st1 st2">client</text>
	
		<g id="g6166_2_" transform="matrix(0.67678168,0,0,0.67678168,317.03913,419.83957)" inkscape:export-filename="/home/slemaign/public_html/talks/geotemp/images/currentworld.png" inkscape:export-xdpi="150" inkscape:export-ydpi="150">
		<text transform="matrix(1.4776 0 0 1.4776 90.2996 -398.6525)" class="st1 st2">Game engine</text>
		<text transform="matrix(1.4776 0 0 1.4776 90.2996 -379.7392)" class="st1 st2">and rules</text>
	</g>
</g>
<g>
	<path class="st6" d="M319.6,298.1"/>
</g>
<g>
	<path class="st6" d="M319.6,322.7"/>
</g>
<g>
	<g>
		<line class="st11" x1="60" y1="317.4" x2="60" y2="298.1"/>
		<g>
			<polygon points="53.9,316.6 66.1,316.6 60,322.7 			"/>
		</g>
	</g>
</g>
<line class="st12" x1="195.1" y1="298.1" x2="59.8" y2="298.1"/>
<g>
	<g>
		<line class="st11" x1="195.1" y1="274.5" x2="195.1" y2="316.3"/>
		<g>
			<polygon points="201.2,315.5 189,315.5 195.1,321.6 			"/>
		</g>
	</g>
</g>
<line class="st11" x1="197" y1="298.1" x2="319.6" y2="298.1"/>
<line class="st11" x1="298.3" y1="298.1" x2="295.2" y2="298.1"/>
<line class="st11" x1="197" y1="298.1" x2="195.1" y2="298.1"/>
<g>
	<g>
		<line class="st11" x1="319.6" y1="298.1" x2="319.6" y2="317.4"/>
		<g>
			<polygon points="325.7,316.6 313.5,316.6 319.6,322.7 			"/>
		</g>
	</g>
</g>
<g id="g19951_2_" transform="matrix(0.31668278,0,0,0.31668278,-24.106938,310.59252)" inkscape:export-filename="/home/slemaign/public_html/talks/geotemp/images/currentworld.png" inkscape:export-xdpi="150" inkscape:export-ydpi="150">
	<path id="rect19953_2_" class="st3" d="M518,238.5h348.3c5.3,0,9.6,4.3,9.6,9.6v198.1c0,5.3-4.3,9.6-9.6,9.6H518
		c-5.3,0-9.6-4.3-9.6-9.6V248.1C508.4,242.8,512.7,238.5,518,238.5z"/>
	<g id="g20139_2_" transform="matrix(1.1107441,0,0,1.1107441,897.27507,804.59269)">
	</g>
</g>
<g id="g6158_3_" transform="translate(-97.142856,187.41841)">
	<path id="rect6160_3_" class="st4" d="M245.3,289.7h93.9c0.8,0,1.4,1,1.4,2.3v30.3c0,1.3-0.6,2.3-1.4,2.3h-93.9
		c-0.8,0-1.4-1-1.4-2.3V292C243.8,290.8,244.5,289.7,245.3,289.7z"/>
	<text transform="matrix(1 0 0 1 247.2356 288.6264)" class="st1 st2">client</text>
	
		<g id="g6166_3_" transform="matrix(0.67678168,0,0,0.67678168,317.03913,419.83957)" inkscape:export-filename="/home/slemaign/public_html/talks/geotemp/images/currentworld.png" inkscape:export-xdpi="150" inkscape:export-ydpi="150">
		<text transform="matrix(1.4776 0 0 1.4776 -93.6681 -170.4579)" class="st1 st2">Operator word </text>
		<text transform="matrix(1.4776 0 0 1.4776 -93.6681 -151.5447)" class="st1 st2">representation</text>
	</g>
</g>
<image style="overflow:visible;enable-background:new    ;" width="1225" height="891" xlink:href="screenshot-l2tor3.PNG"  transform="matrix(7.731370e-02 0 0 6.304169e-02 147.7322 392.4443)">
</image>
<line class="st13" x1="59.8" y1="357.6" x2="59.8" y2="420.5"/>
<line class="st14" x1="319.6" y1="357.6" x2="319.6" y2="421.4"/>
<g>
	<g>
		<line class="st11" x1="195.1" y1="167.1" x2="195.1" y2="187.3"/>
		<g>
			<polygon points="201.2,186.5 189.1,186.5 195.1,192.6 			"/>
		</g>
	</g>
</g>
<text transform="matrix(1 0 0 1 145.7999 383.2502)" class="st1 st7">Word </text>
<text transform="matrix(1 0 0 1 177.7999 383.2502)" class="st1 st8">updated</text>
<g>
	<g>
		<line class="st9" x1="195.1" y1="358" x2="195.1" y2="373.1"/>
		<g>
			<polygon class="st10" points="200.8,372.4 189.3,372.4 195.1,377.7 			"/>
		</g>
	</g>
</g>
<g>
	<g>
		<line class="st15" x1="59.8" y1="420.5" x2="130.8" y2="420.5"/>
		<g>
			<polygon class="st16" points="130,414.4 130,426.6 136.1,420.5 			"/>
		</g>
	</g>
</g>
<g>
	<g>
		<line class="st17" x1="319.6" y1="421.4" x2="258.5" y2="421.4"/>
		<g>
			<polygon class="st16" points="259.3,427.5 259.3,415.3 253.3,421.4 			"/>
		</g>
	</g>
</g>
<g>
	<g>
		<line class="st18" x1="195.1" y1="454.9" x2="195.1" y2="465"/>
		<g>
			<polygon class="st16" points="200.8,464.2 189.3,464.2 195.1,470 			"/>
		</g>
	</g>
</g>
</svg>
