<?xml version="1.0" encoding="UTF-8" standalone="no"?>
<!-- Generator: Adobe Illustrator 21.0.2, SVG Export Plug-In . SVG Version: 6.00 Build 0)  -->

<svg
   xmlns:dc="http://purl.org/dc/elements/1.1/"
   xmlns:cc="http://creativecommons.org/ns#"
   xmlns:rdf="http://www.w3.org/1999/02/22-rdf-syntax-ns#"
   xmlns:svg="http://www.w3.org/2000/svg"
   xmlns="http://www.w3.org/2000/svg"
   xmlns:xlink="http://www.w3.org/1999/xlink"
   xmlns:sodipodi="http://sodipodi.sourceforge.net/DTD/sodipodi-0.dtd"
   xmlns:inkscape="http://www.inkscape.org/namespaces/inkscape"
   version="1.1"
   id="svg2"
   inkscape:export-filename="/home/slemaign/public_html/talks/geotemp/images/state.png"
   inkscape:export-xdpi="150"
   inkscape:export-ydpi="150"
   inkscape:version="0.91 r13725"
   sodipodi:docname="l2tor-timeline.svg"
   x="0px"
   y="0px"
   viewBox="0 0 364.70477 487.19781"
   xml:space="preserve"
   width="364.70477"
   height="487.19778"><metadata
     id="metadata233"><rdf:RDF><cc:Work
         rdf:about=""><dc:format>image/svg+xml</dc:format><dc:type
           rdf:resource="http://purl.org/dc/dcmitype/StillImage" /><dc:title></dc:title></cc:Work></rdf:RDF></metadata><style
     type="text/css"
     id="style3">
	.st0{fill:#D6D7EF;stroke:#2E3436;stroke-width:0.1;stroke-linecap:round;}
	.st1{font-family:'cmr10';}
	.st2{font-size:10.6841px;}
	.st3{fill:#FFFFFF;stroke:#2E3436;stroke-width:0.9473;stroke-linecap:round;}
	.st4{fill:#D6D7EF;stroke:#2E3436;stroke-width:0.1266;stroke-linecap:round;}
	.st5{fill:none;stroke:#000000;stroke-width:0.7542;stroke-linecap:round;}
	.st6{fill:none;}
	.st7{font-size:12px;}
	.st8{font-size:8px;}
	.st9{fill:none;stroke:#2E3436;stroke-width:0.9473;stroke-linecap:round;}
	.st10{fill:#2E3436;}
	.st11{fill:none;stroke:#000000;stroke-miterlimit:10;}
	.st12{stroke:#000000;stroke-miterlimit:10;}
	.st13{fill:#231F20;stroke:#2E3436;stroke-linecap:round;}
	.st14{fill:#231F20;stroke:#231F20;stroke-width:0.9473;stroke-linecap:round;}
	.st15{fill:none;stroke:#231F20;stroke-miterlimit:10;}
	.st16{fill:#231F20;}
	.st17{fill:none;stroke:#231F20;stroke-linecap:round;}
	.st18{fill:none;stroke:#231F20;stroke-width:0.9473;stroke-linecap:round;}
</style><defs
     id="defs5"><inkscape:perspective
       id="perspective71"
       inkscape:persp3d-origin="0.083009078 : 0.039756493 : 1"
       inkscape:vp_x="0 : 0.05963474 : 1"
       inkscape:vp_y="0 : 1.8635856 : 0"
       inkscape:vp_z="0.16601816 : 0.05963474 : 1"
       sodipodi:type="inkscape:persp3d" /><clipPath
       clipPathUnits="userSpaceOnUse"
       id="clipPath4372"><g
         inkscape:export-ydpi="150"
         inkscape:export-xdpi="150"
         inkscape:export-filename="/home/slemaign/public_html/talks/geotemp/images/currentworld.png"
         transform="matrix(0.31668278,0,0,0.31668278,-24.106938,310.59252)"
         id="g4374"
         style="fill:none"><path
           style="fill:none;stroke:#2e3436;stroke-width:0.94730002;stroke-linecap:round"
           inkscape:connector-curvature="0"
           d="m 532,-672.1 348.3,0 c 5.3,0 9.6,4.3 9.6,9.6 l 0,198.1 c 0,5.3 -4.3,9.6 -9.6,9.6 l -348.3,0 c -5.3,0 -9.6,-4.3 -9.6,-9.6 l 0,-198.1 c 0,-5.4 4.3,-9.6 9.6,-9.6 z"
           class="st3"
           id="path4376" /><g
           transform="matrix(1.1107441,0,0,1.1107441,897.27507,804.59269)"
           id="g4378"
           style="fill:none" /></g></clipPath><clipPath
       clipPathUnits="userSpaceOnUse"
       id="clipPath4398"><g
         id="g4400"
         transform="matrix(0.31668278,0,0,0.31668278,-24.106938,310.59252)"
         inkscape:export-filename="/home/slemaign/public_html/talks/geotemp/images/currentworld.png"
         inkscape:export-xdpi="150"
         inkscape:export-ydpi="150"
         style="fill:none"><path
           id="path4402"
           class="st3"
           d="m 532,-331.10001 348.3,0 c 5.3,0 9.6,4.9137 9.6,10.97013 l 0,226.373205 c 0,6.056426 -4.3,10.97013 -9.6,10.97013 l -348.3,0 c -5.3,0 -9.6,-4.913704 -9.6,-10.97013 l 0,-226.373205 c 0,-6.05643 4.3,-10.97013 9.6,-10.97013 z"
           style="fill:none;stroke:#2e3436;stroke-width:0.94730008;stroke-linecap:round"
           inkscape:connector-curvature="0" /><g
           id="g4404"
           transform="matrix(1.1107441,0,0,1.1107441,897.27507,804.59269)"
           style="fill:none" /></g></clipPath><clipPath
       clipPathUnits="userSpaceOnUse"
       id="clipPath4456"><g
         id="g4458"
         transform="matrix(0.30356325,0,0,0.36024233,-29.021238,275.31964)"
         inkscape:export-filename="/home/slemaign/public_html/talks/geotemp/images/currentworld.png"
         inkscape:export-xdpi="150"
         inkscape:export-ydpi="150"
         style="fill:none"><path
           id="path4460"
           class="st3"
           d="m 518,238.5 348.3,0 c 5.3,0 9.6,4.3 9.6,9.6 l 0,198.1 c 0,5.3 -4.3,9.6 -9.6,9.6 l -348.3,0 c -5.3,0 -9.6,-4.3 -9.6,-9.6 l 0,-198.1 c 0,-5.3 4.3,-9.6 9.6,-9.6 z"
           inkscape:connector-curvature="0"
           style="fill:none;stroke:#2e3436;stroke-width:0.9071728;stroke-linecap:round" /><g
           id="g4462"
           transform="matrix(1.1107441,0,0,1.1107441,897.27507,804.59269)"
           style="fill:none" /></g></clipPath></defs><sodipodi:namedview
     bordercolor="#666666"
     borderopacity="1.0"
     fit-margin-bottom="0"
     fit-margin-left="0"
     fit-margin-right="0"
     fit-margin-top="0"
     id="base"
     inkscape:current-layer="svg2"
     inkscape:cx="300.62206"
     inkscape:cy="138.93592"
     inkscape:document-units="px"
     inkscape:pageopacity="0.0"
     inkscape:pageshadow="2"
     inkscape:window-height="1330"
     inkscape:window-maximized="1"
     inkscape:window-width="2560"
     inkscape:window-x="0"
     inkscape:window-y="54"
     inkscape:zoom="1.979899"
     pagecolor="#ffffff"
     showgrid="false" /><g
     id="g193"
     transform="translate(-11.584271,-30.883934)"><g
       id="g195"><line
         class="st9"
         x1="195.10001"
         y1="358"
         x2="195.10001"
         y2="373.10001"
         id="line197"
         style="fill:none;stroke:#2e3436;stroke-width:0.94730002;stroke-linecap:round" /><g
         id="g199"><polygon
           class="st10"
           points="200.8,372.4 189.3,372.4 195.1,377.7 "
           id="polygon201"
           style="fill:#2e3436" /></g></g></g><image
     sodipodi:absref="/home/skadge/publications/iros2017-underworlds/figs/screenshot-l2tor1.PNG"
     xlink:href="screenshot-l2tor1.PNG"
     transform="translate(-11.584271,-24.883934)"
     clip-path="url(#clipPath4372)"
     y="80.101471"
     x="119.34547"
     id="image44"
     height="88.398499"
     width="154.60907"
     style="overflow:visible;enable-background:new" /><g
     id="g4380-4-5"
     transform="translate(641.81258,389.98692)"><g
       id="g4283-2-0"
       transform="translate(-224.50768,204.19651)" /></g><g
     id="g5100"
     transform="translate(-57.298556,-33.455362)"><path
       id="rect5071"
       class="st0"
       d="m 188.7,45.3 119,0 c 1,0 1.8,0.6 1.8,1.4 l 0,18.9 c 0,0.8 -0.8,1.4 -1.8,1.4 l -119,0 c -1,0 -1.8,-0.6 -1.8,-1.4 l 0,-18.8 c -0.1,-0.8 0.8,-1.5 1.8,-1.5 z"
       inkscape:connector-curvature="0"
       style="fill:#d6d7ef;stroke:#2e3436;stroke-width:0.1;stroke-linecap:round" /><text
       transform="translate(194.2618,42.7211)"
       class="st1 st2"
       id="text13"
       style="font-size:10.68410015px;font-family:cmr10"><tspan
         style="font-style:normal;font-variant:normal;font-weight:normal;font-stretch:normal;font-family:cmmi10;-inkscape-font-specification:cmmi10"
         id="tspan4426">client</tspan></text>
<g
       id="g3160"
       transform="matrix(0.67678168,0,0,0.67678168,317.03913,419.83957)"
       inkscape:export-filename="/home/slemaign/public_html/talks/geotemp/images/currentworld.png"
       inkscape:export-xdpi="150"
       inkscape:export-ydpi="150"><text
         transform="matrix(1.4776,0,0,1.4776,-170.9558,-533.8017)"
         class="st1 st2"
         id="text16"
         style="font-size:10.68410015px;font-family:cmr10">Object RFID tracker</text>
</g></g><g
     id="g5262"
     transform="translate(97.254779,-33.455362)"><path
       id="rect5264"
       class="st0"
       d="m 172,45.3 94,0 c 0.8,0 1.4,0.6 1.4,1.4 l 0,18.9 c 0,0.8 -0.6,1.4 -1.4,1.4 l -94,0 c -0.8,0 -1.4,-0.6 -1.4,-1.4 l 0,-18.8 c -0.1,-0.8 0.6,-1.5 1.4,-1.5 z"
       inkscape:connector-curvature="0"
       style="fill:#d6d7ef;stroke:#2e3436;stroke-width:0.1;stroke-linecap:round" /><text
       transform="translate(173.9523,40.8685)"
       class="st1 st2"
       id="text20"
       style="font-size:10.68410015px;font-family:cmr10"><tspan
         style="font-style:normal;font-variant:normal;font-weight:normal;font-stretch:normal;font-family:cmmi10;-inkscape-font-specification:cmmi10"
         id="tspan4428">client</tspan></text>
<g
       id="g5270"
       transform="matrix(0.67678168,0,0,0.67678168,317.03913,419.83957)"
       inkscape:export-filename="/home/slemaign/public_html/talks/geotemp/images/currentworld.png"
       inkscape:export-xdpi="150"
       inkscape:export-ydpi="150"><text
         transform="matrix(1.4776,0,0,1.4776,-193.0847,-533.4723)"
         class="st1 st2"
         id="text23"
         style="font-size:10.68410015px;font-family:cmr10">NAO model</text>
</g></g><g
     id="g6158"
     transform="translate(-108.72713,162.53448)"><path
       id="rect6160"
       class="st4"
       d="m 110.2,135.3 93.9,0 c 0.8,0 1.4,1 1.4,2.3 l 0,30.3 c 0,1.3 -0.6,2.3 -1.4,2.3 l -93.9,0 c -0.8,0 -1.4,-1 -1.4,-2.3 l 0,-30.3 c -0.1,-1.3 0.6,-2.3 1.4,-2.3 z"
       inkscape:connector-curvature="0"
       style="fill:#d6d7ef;stroke:#2e3436;stroke-width:0.1266;stroke-linecap:round" /><text
       transform="translate(112.1488,134.1886)"
       class="st1 st2"
       id="text30"
       style="font-size:10.68410015px;font-family:cmr10"><tspan
         style="font-style:normal;font-variant:normal;font-weight:normal;font-stretch:normal;font-family:cmmi10;-inkscape-font-specification:cmmi10"
         id="tspan4430">client</tspan></text>
<g
       id="g6166"
       transform="matrix(0.67678168,0,0,0.67678168,317.03913,419.83957)"
       inkscape:export-filename="/home/slemaign/public_html/talks/geotemp/images/currentworld.png"
       inkscape:export-xdpi="150"
       inkscape:export-ydpi="150"><text
         transform="matrix(1.4776,0,0,1.4776,-293.2696,-398.6521)"
         class="st1 st2"
         id="text33"
         style="font-size:10.68410015px;font-family:cmr10">Computation of</text>
<text
         transform="matrix(1.4776,0,0,1.4776,-293.2696,-378.9183)"
         class="st1 st2"
         id="text35"
         style="font-size:10.68410015px;font-family:cmr10">spatial relations</text>
</g></g><g
     id="g5100_1_"
     transform="translate(-57.298556,-33.455362)"><path
       id="rect5071_1_"
       class="st0"
       d="m 59.3,45.3 119,0 c 1,0 1.8,0.6 1.8,1.4 l 0,18.9 c 0,0.8 -0.8,1.4 -1.8,1.4 l -119,0 c -1,0 -1.8,-0.6 -1.8,-1.4 l 0,-18.8 c 0,-0.8 0.8,-1.5 1.8,-1.5 z"
       inkscape:connector-curvature="0"
       style="fill:#d6d7ef;stroke:#2e3436;stroke-width:0.1;stroke-linecap:round" /><text
       transform="translate(64.9416,42.7213)"
       class="st1 st2"
       id="text39"
       style="font-size:10.68410015px;font-family:cmr10"><tspan
         style="font-style:normal;font-variant:normal;font-weight:normal;font-stretch:normal;font-family:cmmi10;-inkscape-font-specification:cmmi10"
         id="tspan4424">client</tspan></text>
<g
       id="g3160_1_"
       transform="matrix(0.67678168,0,0,0.67678168,317.03913,419.83957)"
       inkscape:export-filename="/home/slemaign/public_html/talks/geotemp/images/currentworld.png"
       inkscape:export-xdpi="150"
       inkscape:export-ydpi="150"><text
         transform="matrix(1.4776,0,0,1.4776,-358.1553,-533.8017)"
         class="st1 st2"
         id="text42"
         style="font-size:10.68410015px;font-family:cmr10">Kinect head tracker</text>
</g></g><g
     id="g46"
     transform="translate(-11.584271,-24.883934)"><g
       id="g48"><line
         class="st5"
         x1="196.10001"
         y1="58.299999"
         x2="196.10001"
         y2="80.099998"
         id="line50"
         style="fill:none;stroke:#000000;stroke-width:0.75419998;stroke-linecap:round" /><g
         id="g52"><polygon
           points="192.3,79 196.1,85.5 199.9,79 "
           id="polygon54" /></g></g></g><rect
     x="134.21573"
     y="60.816063"
     class="st6"
     width="98.699997"
     height="17.4"
     id="rect56"
     style="fill:none" /><text
     class="st1 st7"
     id="text58"
     style="font-size:12px;font-family:cmr10"
     x="134.16933"
     y="69.374664"><tspan
       id="tspan4388"
       style="font-style:normal;font-variant:normal;font-weight:normal;font-stretch:normal;font-family:cmmi10;-inkscape-font-specification:cmmi10"> world</tspan></text>
<text
     class="st1 st8"
     id="text60"
     style="font-size:8px;font-family:cmr10"
     x="166.16933"
     y="69.374664">objects only</text>
<line
     class="st9"
     x1="61.315731"
     y1="33.616066"
     x2="61.515728"
     y2="215.21608"
     id="line67"
     style="fill:none;stroke:#2e3436;stroke-width:0.94730002;stroke-linecap:round" /><g
     id="g69"
     transform="translate(-11.584271,-24.883934)"><g
       id="g71"><line
         class="st9"
         x1="73.099998"
         y1="240.10001"
         x2="136.10001"
         y2="240.10001"
         id="line73"
         style="fill:none;stroke:#2e3436;stroke-width:0.94730002;stroke-linecap:round" /><g
         id="g75"><polygon
           class="st10"
           points="135.4,234.4 135.4,245.9 141.1,240.1 "
           id="polygon77"
           style="fill:#2e3436" /></g></g></g><line
     class="st9"
     x1="323.11575"
     y1="33.616066"
     x2="323.11575"
     y2="215.21608"
     id="line79"
     style="fill:none;stroke:#2e3436;stroke-width:0.94730002;stroke-linecap:round" /><g
     id="g81"
     transform="translate(-11.584271,-24.883934)"><g
       id="g83"><line
         class="st9"
         x1="263"
         y1="240.10001"
         x2="334.70001"
         y2="240.10001"
         id="line85"
         style="fill:none;stroke:#2e3436;stroke-width:0.94730002;stroke-linecap:round" /><g
         id="g87"><polygon
           class="st10"
           points="263.8,234.4 263.8,245.9 258.1,240.1 "
           id="polygon89"
           style="fill:#2e3436" /></g></g></g><rect
     x="134.21573"
     y="167.71608"
     class="st6"
     width="98.699997"
     height="17.4"
     id="rect91"
     style="fill:none" /><text
     class="st1 st8"
     id="text95"
     style="font-size:8px;font-family:cmr10"
     x="166.16933"
     y="176.32736">robot and child added</text>
<g
     id="g6158_1_"
     transform="translate(-108.72713,162.53448)"><path
       id="rect6160_1_"
       class="st4"
       d="m 245.3,135.3 93.9,0 c 0.8,0 1.4,1 1.4,2.3 l 0,30.3 c 0,1.3 -0.6,2.3 -1.4,2.3 l -93.9,0 c -0.8,0 -1.4,-1 -1.4,-2.3 l 0,-30.3 c -0.1,-1.3 0.6,-2.3 1.4,-2.3 z"
       inkscape:connector-curvature="0"
       style="fill:#d6d7ef;stroke:#2e3436;stroke-width:0.1266;stroke-linecap:round" /><text
       transform="translate(247.2356,134.1886)"
       class="st1 st2"
       id="text99"
       style="font-size:10.68410015px;font-family:cmr10"><tspan
         style="font-style:normal;font-variant:normal;font-weight:normal;font-stretch:normal;font-family:cmmi10;-inkscape-font-specification:cmmi10"
         id="tspan4432">client</tspan></text>
<g
       id="g6166_1_"
       transform="matrix(0.67678168,0,0,0.67678168,317.03913,419.83957)"
       inkscape:export-filename="/home/slemaign/public_html/talks/geotemp/images/currentworld.png"
       inkscape:export-xdpi="150"
       inkscape:export-ydpi="150"><text
         transform="matrix(1.4776,0,0,1.4776,-93.6681,-398.6522)"
         class="st1 st2"
         id="text102"
         style="font-size:10.68410015px;font-family:cmr10">Visibility</text>
<text
         transform="matrix(1.4776,0,0,1.4776,-93.6681,-379.7389)"
         class="st1 st2"
         id="text104"
         style="font-size:10.68410015px;font-family:cmr10">computation</text>
</g></g><g
     id="g6158_2_"
     transform="translate(-108.72713,162.53448)"><path
       id="rect6160_2_"
       class="st4"
       d="m 369.8,135.3 93.9,0 c 0.8,0 1.4,1 1.4,2.3 l 0,30.3 c 0,1.3 -0.6,2.3 -1.4,2.3 l -93.9,0 c -0.8,0 -1.4,-1 -1.4,-2.3 l 0,-30.3 c -0.1,-1.3 0.6,-2.3 1.4,-2.3 z"
       inkscape:connector-curvature="0"
       style="fill:#d6d7ef;stroke:#2e3436;stroke-width:0.1266;stroke-linecap:round" /><text
       transform="translate(371.7416,134.1884)"
       class="st1 st2"
       id="text108"
       style="font-size:10.68410015px;font-family:cmr10"><tspan
         style="font-style:normal;font-variant:normal;font-weight:normal;font-stretch:normal;font-family:cmmi10;-inkscape-font-specification:cmmi10"
         id="tspan4434">client</tspan></text>
<g
       id="g6166_2_"
       transform="matrix(0.67678168,0,0,0.67678168,317.03913,419.83957)"
       inkscape:export-filename="/home/slemaign/public_html/talks/geotemp/images/currentworld.png"
       inkscape:export-xdpi="150"
       inkscape:export-ydpi="150"><text
         transform="matrix(1.4776,0,0,1.4776,90.2996,-398.6525)"
         class="st1 st2"
         id="text111"
         style="font-size:10.68410015px;font-family:cmr10">Game engine</text>
<text
         transform="matrix(1.4776,0,0,1.4776,90.2996,-379.7392)"
         class="st1 st2"
         id="text113"
         style="font-size:10.68410015px;font-family:cmr10">and rules</text>
</g></g><g
     id="g115"
     transform="translate(-11.584271,-24.883934)"><path
       class="st6"
       d="M 319.6,298.1"
       id="path117"
       inkscape:connector-curvature="0"
       style="fill:none" /></g><g
     id="g119"
     transform="translate(-11.584271,-24.883934)"><path
       class="st6"
       d="M 319.6,322.7"
       id="path121"
       inkscape:connector-curvature="0"
       style="fill:none" /></g><g
     id="g123"
     transform="translate(-11.584271,-24.883934)"><g
       id="g125"><line
         class="st11"
         x1="60"
         y1="317.39999"
         x2="60"
         y2="298.10001"
         id="line127"
         style="fill:none;stroke:#000000;stroke-miterlimit:10" /><g
         id="g129"><polygon
           points="53.9,316.6 66.1,316.6 60,322.7 "
           id="polygon131" /></g></g></g><line
     class="st12"
     x1="183.51573"
     y1="273.21606"
     x2="48.215729"
     y2="273.21606"
     id="line133"
     style="stroke:#000000;stroke-miterlimit:10" /><g
     id="g135"
     transform="translate(-11.584271,-24.883934)"><g
       id="g137"><line
         class="st11"
         x1="195.10001"
         y1="274.5"
         x2="195.10001"
         y2="316.29999"
         id="line139"
         style="fill:none;stroke:#000000;stroke-miterlimit:10" /><g
         id="g141"><polygon
           points="201.2,315.5 189,315.5 195.1,321.6 "
           id="polygon143" /></g></g></g><line
     class="st11"
     x1="185.41573"
     y1="273.21606"
     x2="308.01575"
     y2="273.21606"
     id="line145"
     style="fill:none;stroke:#000000;stroke-miterlimit:10" /><line
     class="st11"
     x1="286.71573"
     y1="273.21606"
     x2="283.61575"
     y2="273.21606"
     id="line147"
     style="fill:none;stroke:#000000;stroke-miterlimit:10" /><line
     class="st11"
     x1="185.41573"
     y1="273.21606"
     x2="183.51573"
     y2="273.21606"
     id="line149"
     style="fill:none;stroke:#000000;stroke-miterlimit:10" /><g
     id="g151"
     transform="translate(-11.584271,-24.883934)"><g
       id="g153"><line
         class="st11"
         x1="319.60001"
         y1="298.10001"
         x2="319.60001"
         y2="317.39999"
         id="line155"
         style="fill:none;stroke:#000000;stroke-miterlimit:10" /><g
         id="g157"><polygon
           points="325.7,316.6 313.5,316.6 319.6,322.7 "
           id="polygon159" /></g></g></g><g
     id="g6158_3_"
     transform="translate(-108.72713,162.53448)"><path
       id="rect6160_3_"
       class="st4"
       d="m 245.3,289.7 93.9,0 c 0.8,0 1.4,1 1.4,2.3 l 0,30.3 c 0,1.3 -0.6,2.3 -1.4,2.3 l -93.9,0 c -0.8,0 -1.4,-1 -1.4,-2.3 l 0,-30.3 c -0.1,-1.2 0.6,-2.3 1.4,-2.3 z"
       inkscape:connector-curvature="0"
       style="fill:#d6d7ef;stroke:#2e3436;stroke-width:0.1266;stroke-linecap:round" /><text
       transform="translate(247.2356,288.6264)"
       class="st1 st2"
       id="text166"
       style="font-size:10.68410015px;font-family:cmr10"><tspan
         style="font-style:normal;font-variant:normal;font-weight:normal;font-stretch:normal;font-family:cmmi10;-inkscape-font-specification:cmmi10"
         id="tspan4436">client</tspan></text>
<g
       id="g6166_3_"
       transform="matrix(0.67678168,0,0,0.67678168,317.03913,419.83957)"
       inkscape:export-filename="/home/slemaign/public_html/talks/geotemp/images/currentworld.png"
       inkscape:export-xdpi="150"
       inkscape:export-ydpi="150"><text
         transform="matrix(1.4776,0,0,1.4776,-93.6681,-170.4579)"
         class="st1 st2"
         id="text169"
         style="font-size:10.68410015px;font-family:cmr10">Operator word </text>
<text
         transform="matrix(1.4776,0,0,1.4776,-93.6681,-151.5447)"
         class="st1 st2"
         id="text171"
         style="font-size:10.68410015px;font-family:cmr10">representation</text>
</g></g><line
     class="st13"
     x1="48.215729"
     y1="332.71606"
     x2="48.215729"
     y2="395.61606"
     id="line175"
     style="fill:#231f20;stroke:#2e3436;stroke-linecap:round" /><line
     class="st14"
     x1="308.01575"
     y1="332.71606"
     x2="308.01575"
     y2="396.51605"
     id="line177"
     style="fill:#231f20;stroke:#231f20;stroke-width:0.94730002;stroke-linecap:round" /><g
     id="g179"
     transform="translate(-11.584271,-24.883934)"><g
       id="g181"><line
         class="st11"
         x1="195.10001"
         y1="167.10001"
         x2="195.10001"
         y2="187.3"
         id="line183"
         style="fill:none;stroke:#000000;stroke-miterlimit:10" /><g
         id="g185"><polygon
           points="201.2,186.5 189.1,186.5 195.1,192.6 "
           id="polygon187" /></g></g></g><g
     id="g203"
     transform="translate(-11.584271,-24.883934)"><g
       id="g205"><line
         class="st15"
         x1="59.799999"
         y1="420.5"
         x2="130.8"
         y2="420.5"
         id="line207"
         style="fill:none;stroke:#231f20;stroke-miterlimit:10" /><g
         id="g209"><polygon
           class="st16"
           points="130,414.4 130,426.6 136.1,420.5 "
           id="polygon211"
           style="fill:#231f20" /></g></g></g><g
     id="g213"
     transform="translate(-11.584271,-24.883934)"><g
       id="g215"><line
         class="st17"
         x1="319.60001"
         y1="421.39999"
         x2="258.5"
         y2="421.39999"
         id="line217"
         style="fill:none;stroke:#231f20;stroke-linecap:round" /><g
         id="g219"><polygon
           class="st16"
           points="259.3,427.5 259.3,415.3 253.3,421.4 "
           id="polygon221"
           style="fill:#231f20" /></g></g></g><g
     id="g223"
     transform="translate(-11.584271,-24.883934)"><g
       id="g225"><line
         class="st18"
         x1="195.10001"
         y1="454.89999"
         x2="195.10001"
         y2="465"
         id="line227"
         style="fill:none;stroke:#231f20;stroke-width:0.94730002;stroke-linecap:round" /><g
         id="g229"><polygon
           class="st16"
           points="200.8,464.2 189.3,464.2 195.1,470 "
           id="polygon231"
           style="fill:#231f20" /></g></g></g><text
     y="175.99033"
     x="133.98074"
     class="st1 st7"
     id="text58-1"
     style="font-size:12px;font-family:cmr10"><tspan
       id="tspan4388-1"
       style="font-style:normal;font-variant:normal;font-weight:normal;font-stretch:normal;font-family:cmmi10;-inkscape-font-specification:cmmi10">world</tspan></text>
<g
     id="g4464"
     transform="translate(0,-6.0000003)"><image
       sodipodi:absref="/home/skadge/publications/iros2017-underworlds/figs/screenshot-l2tor3.PNG"
       xlink:href="screenshot-l2tor3.PNG"
       style="overflow:visible;enable-background:new"
       width="138.63786"
       height="82.223289"
       id="image173"
       x="112.21936"
       y="360.23892"
       clip-path="url(#clipPath4456)" /><text
       y="358.72342"
       x="166.21562"
       style="font-size:8px;font-family:cmr10"
       id="text191"
       class="st1 st8">child's field of view</text>
<text
       style="font-size:12px;font-family:cmr10"
       id="text58-1-6"
       class="st1 st7"
       x="133.08788"
       y="358.66888"><tspan
         style="font-style:normal;font-variant:normal;font-weight:normal;font-stretch:normal;font-family:cmmi10;-inkscape-font-specification:cmmi10"
         id="tspan4388-1-7">world</tspan></text>
</g><image
     sodipodi:absref="/home/skadge/publications/iros2017-underworlds/figs/screenshot-l2tor2.PNG"
     xlink:href="screenshot-l2tor2.PNG"
     transform="translate(-11.584271,-26.883934)"
     clip-path="url(#clipPath4398)"
     y="204.59293"
     x="129.46458"
     id="image65"
     height="83.640915"
     width="140.26353"
     style="overflow:visible;enable-background:new" /></svg>